# xmcd CD database file
#
# Track frame offsets:
#	180
#	16500
#	34722
#	49566
#	70643
#	94344
#	117597
#	142345
#	167471
#	191771
#	209556
#	225815
#	239540
#	263250
#	284400
#	308464
#
# Disc length: 4335 seconds
#
# Revision: 0
# Processed by: cddbd v1.5.1PL2 Copyright (c) Steve Scherf et al.
# Submitted via: CDex 1.51
#
DISCID=d210ed10
DTITLE=Blue Stuff - Three walking the Blues
DYEAR=1995
DGENRE=Blues
TTITLE0=Fishing Blues
TTITLE1=Louise, Louise Blues
TTITLE2=Cakewalk into Town
TTITLE3=The Band (solo Version)
TTITLE4=WPA Blues
TTITLE5=61 Highway
TTITLE6=Hesitation Blues
TTITLE7=Walking on the tight Rope
TTITLE8=Just a Dream
TTITLE9=Chicago Breakdown
TTITLE10=Blue Mood
TTITLE11=Chevrolet
TTITLE12=Fever
TTITLE13=Diving Duck Blues
TTITLE14=The Band
TTITLE15=Bring it on Home
EXTD=YEAR: 1995
EXTT0=
EXTT1=
EXTT2=
EXTT3=
EXTT4=
EXTT5=
EXTT6=
EXTT7=
EXTT8=
EXTT9=
EXTT10=
EXTT11=
EXTT12=
EXTT13=
EXTT14=
EXTT15=
PLAYORDER=
